<svg id="Layer_1" data-name="Layer 1" xmlns="http://www.w3.org/2000/svg" viewBox="0 0 214.23 30.61"><defs><style>.cls-1{fill:#f8b237;}</style></defs><title>Untitled-4</title><path class="cls-1" d="M28.68,23.44h.15a16.17,16.17,0,0,1,3.68,1.43v.28c0,1.51-.24,2.26-.55,2.26a1.29,1.29,0,0,0,.7.85l1.13-.12c1.52,0,2.27.42,2.27,1.27q-.27.64-.57.69L34.64,30a8.33,8.33,0,0,1-1.27.12c0-.13-.29-.36-.86-.69h-.28c0,.28-.32.61-1,1q-.12,1.35-2.42,3.68v.44l.29.15h.15c1.51-.4,2.27-.83,2.27-1.29H32a10.55,10.55,0,0,1,3.12,2.4c.13,0,.27.14.41.43v.72c-1.13,1.17-1.7,2-1.7,2.55v.43h.44c.66-.95,1.12-1.43,1.39-1.43A24.25,24.25,0,0,1,39.17,40a1.55,1.55,0,0,1,1.57,1,1.46,1.46,0,0,1-.85,1.28,2.83,2.83,0,0,1-2-.84l-1.29.13a15.33,15.33,0,0,1-1.84-.42l-.7.14-1-.29c-.56.19-.85.43-.85.71a11.34,11.34,0,0,0-2-.27,2.51,2.51,0,0,1-1.13.41l-.29-.14c-.38.15-.56.3-.56.44v1.39a19.23,19.23,0,0,0-2,2.69,12.83,12.83,0,0,1-2.83,2c0,.14-.14.29-.43.43h-1v-.14a17.8,17.8,0,0,0,4.08-5.83l-.25-.54a33.9,33.9,0,0,1-4.41.54l-.29-.13a15,15,0,0,1-3.83,1.13h-.56A7.92,7.92,0,0,0,14,43l-.14-.31v-.13a6.39,6.39,0,0,0,1.58-.28c.06,0,.34.06.84.16a19.42,19.42,0,0,1,3.82-.73v.14A7.1,7.1,0,0,0,22.74,41c-.41-3.11-.89-4.66-1.42-4.66a5.66,5.66,0,0,1-.27-1.14h.13a9.38,9.38,0,0,0,2.41.7c2.17-.38,3.25-.8,3.25-1.26v-.44c0-.13-.23-.37-.71-.71a5.13,5.13,0,0,1-1.12.3,4.61,4.61,0,0,1-.57-2h-.29a5.17,5.17,0,0,0-1.69.72c-.38,0-1.27-.57-2.68-1.7v-.15c0-.19.11-.29.27-.29a9,9,0,0,0,1.69.44,3.34,3.34,0,0,0,2.27-1,7.38,7.38,0,0,0-1.55-3l-.14-.71h.27a10.3,10.3,0,0,1,2.56,1.12c1,.28,1.42.56,1.42.87v1a5.8,5.8,0,0,1-.29,2.25c.2,0,.29.05.29.14a3,3,0,0,1-.29,1.13,4.1,4.1,0,0,0,1.7.71,6.76,6.76,0,0,0,1.29-3l-.15-1.25a9.82,9.82,0,0,0,.71-3.27c0-.26-.57-.69-1.7-1.29v-.27C28.35,23.73,28.53,23.44,28.68,23.44Zm-4.09,14.9v.29c0,1.41.19,2.12.56,2.12h.42c1.14,0,1.71-1,1.71-3a3.49,3.49,0,0,1-.71-.56h-1C24.92,37.2,24.59,37.58,24.59,38.34Zm4.24-1.42q0,.09.15,1.83L28.83,40l.71.14H30c1.23,0,1.85-1.23,1.85-3.68v-.13c0-.15-.19-.29-.56-.44C29.63,36.32,28.83,36.65,28.83,36.92Zm.57,6.64q6.52,1.11,6.53,2.57c.27,0,.41.09.41.28v1.28a1.56,1.56,0,0,1,.43,1V49c0,.15-.28.38-.84.7h-.15c-.85-.24-1.28-.71-1.28-1.41-1.42-1.89-2.37-2.84-2.84-2.84a3.23,3.23,0,0,0-2.26-1.26Z" transform="translate(-13.81 -21.25)"/><path class="cls-1" d="M55.58,25.77H56c.77,0,1.86.72,3.27,2.14v.14a18.78,18.78,0,0,1-.85,3.54h.13A15.24,15.24,0,0,1,61.8,31h.14c1,.15,1.55.4,1.55.73s-1.79.78-5.37,1.26Q57,35.73,55.71,38.25a20.71,20.71,0,0,0-1,3.68c-.21,0-.45.33-.73,1a5.14,5.14,0,0,1-4.1,2.28c0-.51.62-1.13,1.85-1.87q1.84-1.53,2.83-6.78a10.42,10.42,0,0,1,.85-2.27c-1.08-.2-2.31-.48-3.68-.85,0-.22,1.37-.5,4.1-.84a11.68,11.68,0,0,0,1.27-4.54c-.27-1-.55-1.56-.85-1.56H54.85v-.16C54.87,26.2,55.11,26,55.58,25.77ZM58.82,36h.57c1,.6,1.56,1.08,1.56,1.42l-2.13,3H59a7.76,7.76,0,0,1,1.69-.57h.58l-.15-.71V39h.42c1.42.38,2.14,1.09,2.14,2.12v.42c-.19.85-.42,1.27-.72,1.27s-.69-.7-1.13-2.12a12.55,12.55,0,0,0-4.68,2.41,4.13,4.13,0,0,1-.54.15l-.31-.44v-.56c0-.09,0-.13.16-.13l-.16-.31v-.69c0-.55.34-.93,1-1.14A5.47,5.47,0,0,0,59,36.55Zm7.25-14.73h.13a19.57,19.57,0,0,0,3.11,1.41v.13q0,1.56-4.53,6.81a4.51,4.51,0,0,1-2,.72,48.21,48.21,0,0,1,3-4.83,3.89,3.89,0,0,0,.56-2.11v-.44A6.9,6.9,0,0,0,66.07,21.25Zm6.51,7.92q4.23,0,4.23.84c0,.67-1.18,1-3.54,1a3.56,3.56,0,0,1,.29,1.58v.28l-.14,1,1-.12H75c.76.08,1.15.41,1.15,1-1.9,0-2.85.28-2.85.71a9.63,9.63,0,0,0-.41,2.25l.14.58h.56l-.29-.44v-.27c1.86.09,2.85.42,3,1v.12c0,.45-1.13.88-3.39,1.28v2a1,1,0,0,0,.56.15H75q5.67,0,5.67,2a4.16,4.16,0,0,1-1.27.41,5.15,5.15,0,0,1-2.56-1,17.23,17.23,0,0,1-1.84.13c-.38,0-1.22,0-2.55-.13a2.19,2.19,0,0,1,.29,1.13v.29l-.13.29a1.89,1.89,0,0,1-1.85-1.29,3.32,3.32,0,0,1-1.56.3H69a3.46,3.46,0,0,1-1.86-.44V48.3c0,.8,0,2-.12,3.56h-.29c-.51,0-.94-1.28-1.28-3.83-.09,0-.14-.1-.14-.29h.42q.31-9.14.31-17a1,1,0,0,1-.59-1h.15c.5,0,1,.38,1.54,1.14v4.25c2.94-.6,4.41-1,4.41-1.29v-2.4l-1,.15C68.8,31.4,67.9,31,67.9,30.45a29.46,29.46,0,0,0,4.68-1Zm-4.41,6.66h-1v7.66q4.13-.57,4.12-2,.15,0,.15-.42v-.85H68.88l-1-.15v-.27c0-.27,1.18-.6,3.54-1V35.27A32.44,32.44,0,0,1,68.17,35.83ZM74,24.35c1,.1,1.58.53,1.58,1.29v.42h-.15q-5.53,0-5.53-1.57H70l.56.15Z" transform="translate(-13.81 -21.25)"/><path class="cls-1" d="M108.39,25h.14a6.62,6.62,0,0,1,1.26.15,1.59,1.59,0,0,1,.84-.15.31.31,0,0,0,.31.29l.84-.14c.23,0,.65.38,1.28,1.14v.15c0,.34-.9.63-2.7.85q-1.26-.15-1.56-.15c-.07,0-.35.05-.85.15a7.51,7.51,0,0,1-.84-.15q-.92,0-7.66,1.27a12,12,0,0,0-1.55-.14,1.12,1.12,0,0,0-1.13.85l1.69.14c-.1,1.53-.15,2.38-.15,2.54l.15,1a4.22,4.22,0,0,0-.15,1.13l.15,1a14.88,14.88,0,0,0-.3,2.12l.3.71-.15.29a.13.13,0,0,0,.15.15L98,42.88a6.16,6.16,0,0,1,.27,2.24v1.15h-.84v-.15a9.84,9.84,0,0,0-1-3.83,25.4,25.4,0,0,1-.14-2.54h.73c.17,0,.25-.1.25-.29V37.32h-.25A34.93,34.93,0,0,1,93.65,41H93.5a5,5,0,0,0-2.12-1Q91.1,44.32,91,45h-.58v-.15a20.32,20.32,0,0,0-1-4.24A3.19,3.19,0,0,0,90,39.05c0-.2,0-.3-.14-.3L90,37.32V36.07c0-1.23-.24-1.85-.7-1.85v-.14c0-.19.11-.28.26-.28.81,0,1.47,1.7,2,5.1l.86.56h.42a18.44,18.44,0,0,0,4.51-3.83v-2h-.25c0,.3-.25.58-.73.84q-.18,0-1.41-.12l-.85.12c-.38-.13-.57-.26-.57-.41v-.43l3.12-.56a1.54,1.54,0,0,0,.69.28v-1c0-1.87-.41-3-1.25-3.41l-.71-.15a13.43,13.43,0,0,0-3,.29L91.52,29h-.85v-.42c1.73-.38,4.33-.86,7.79-1.42a55.73,55.73,0,0,1,7-1.7c0-.19.14-.29.41-.29.83.1,1.3.14,1.42.14A2.37,2.37,0,0,1,108.39,25ZM104,29.12c2.73.34,4.1.82,4.1,1.42v.14c0,.07-.56,1.06-1.69,3v.43l.15.29A6.85,6.85,0,0,0,103,36.48a14.87,14.87,0,0,0-2.26-.28c1.89-1.66,2.83-2.7,2.83-3.11a8.09,8.09,0,0,0,.57-2.41A6.37,6.37,0,0,1,104,29.12Zm5.39,6.22h.56c.73,0,1.3.48,1.69,1.44a7.16,7.16,0,0,0-.13,1.12c.09.28.18.42.28.42a27.07,27.07,0,0,1-.28,3,4.39,4.39,0,0,1,.28,1.69l-.15.58.29.56-.14,1,.14,1q-.33,2-1.56,2c-.16,0-.45-.52-.86-1.56a3.69,3.69,0,0,1-2.1-1.27h-1.29l-.15-1v-.13c2.65,0,4-.62,4-1.85v-.56a1.17,1.17,0,0,0-.15-.58l.15-.27-.15-.29a1,1,0,0,1,.15-.42A25.77,25.77,0,0,0,109.38,35.34ZM114.9,32c1.6,0,2.39.62,2.39,1.85l-.56.57a16.29,16.29,0,0,1-3.25-.57l-.27.13-.73-.13a12,12,0,0,0-4.39.69h-.29l-1-.12v-.29Q113,31.95,114.9,32Z" transform="translate(-13.81 -21.25)"/><path class="cls-1" d="M134.63,30.35h.21c1.45.33,2.18,1.06,2.18,2.18a66.11,66.11,0,0,1-1.74,7.19c1,.76,1.53,1.49,1.53,2.18v2.39q0,2.84,3.27,2.84c1.28.14,2.08.21,2.39.21q7.23,0,9.37-3.26c.48-2.33.85-3.49,1.09-3.49h.23a18.17,18.17,0,0,1,1.74,4.79c-.7,2-3.39,3.28-8.07,3.71h-5.24c-3.7,0-5.81-1.46-6.31-4.36a24.15,24.15,0,0,0-.23-3.71h-.42c-2.43,3.06-4.47,4.58-6.12,4.58h-.21c-.21,0-.43-.21-.65-.65a2.87,2.87,0,0,1,1.3-1.53l.65.44A12.59,12.59,0,0,0,135.49,33v-.87l-.86-1.3Zm-3.27-2.62c1,0,1.59.79,1.74,2.39v4.36q0,1.53.21,4.8l-.44.22h-.42c-.59-.2-.88-.85-.88-2q0-7.23-.65-9.6ZM137.9,24a6,6,0,0,1,3.69,2q-.21,6.65-.21,9.81v5c0,1.16-.29,1.74-.88,1.74A2.24,2.24,0,0,1,139,40.37V27.52L138.76,26a44.19,44.19,0,0,0-5.66,1.09h-.44c-.21,0-.43-.22-.65-.65,0-.35,1.45-.93,4.36-1.76C136.37,24.53,136.88,24.31,137.9,24Z" transform="translate(-13.81 -21.25)"/><path class="cls-1" d="M172.17,33.16h1a2.32,2.32,0,0,1,2.26,1.41c0,1.32-.76,4-2.26,8.08h-1.85l-6.51.85h-.57v-.14c0-.12.47-.35,1.42-.71q-1.07-6.8-2.27-7.93h1.42a40.18,40.18,0,0,0,6.24-1.41C171.13,33.21,171.51,33.16,172.17,33.16ZM165,35.86a9.94,9.94,0,0,1,1.83,2.54c1.53-.41,2.29-.75,2.29-1v-.85c0-1.13-.1-1.69-.29-1.69C166.23,35.19,165,35.52,165,35.86Zm2.68,3.67h-.85a8.39,8.39,0,0,0-.41,2.41,1.05,1.05,0,0,1,.14.43h.27a3.91,3.91,0,0,0,1.85-.57q0-.21.15-2a1,1,0,0,1-.15-.42Zm2.44-5v.15a1.62,1.62,0,0,1,.41,1v.44l-.16,1.41.73-.15h.12c.58.07.87.22.87.44V38a5.16,5.16,0,0,1-2.28,1.55V40l-.13,1.7a3.24,3.24,0,0,1,1.54-.3h1q.95-1.07,1.56-5.38V33.87C173.5,33.87,172.28,34.11,170.07,34.57Zm13,5.81h.14a6.13,6.13,0,0,1,3.83,1.42v.72a12.32,12.32,0,0,1-1.27,3.39h.85A1,1,0,0,1,187.76,47c-.18.44-.37.67-.56.71h-.15a23.87,23.87,0,0,0-2.83-.71,35.2,35.2,0,0,1-4,.43v.13a6.2,6.2,0,0,1,.16,1.14l-.31.15c-.75,0-1.13-.48-1.13-1.42V46.19a11.42,11.42,0,0,1,.15-1.84,3.08,3.08,0,0,0-2.54-3.26l-.44-.57h.15a40.1,40.1,0,0,1,4.52.85h.72C182.57,41.14,183.08,40.82,183.08,40.38Zm-3.52-16.15q.66,0,2.1,2v.16q0,.69-2.54,4.81c.33,0,1.09.51,2.27,1.54h.14q2.4-3.3,2.4-3.39a7.06,7.06,0,0,0,.71-3c1.33.59,2,1.3,2,2.11v.72c-.09.27-.38.4-.85.4h-.42l-.29-.12q-.19,1.14-2.7,3.95,7.09,5.82,11.2,5.82a2.63,2.63,0,0,1,1.56,1.13v.44l-2.4.27q-3.89,0-8.51-5.1a10.29,10.29,0,0,0-2.41-1.83l-3.4,3.68a3.09,3.09,0,0,1-2,.85q4.25-4.92,4.24-5.26v-.12c-1-1.05-1.61-1.57-1.83-1.57a4.29,4.29,0,0,1-2.41,1.13s1.05-1.59,3.14-4.66a5,5,0,0,0,.41-2,6,6,0,0,0-.56-2Zm1.1,18.14c-.08,2-.12,3.36-.12,4.11h.12c2.37-.25,3.56-.53,3.56-.85a8.7,8.7,0,0,0,.56-2.42c-.17-.9-.36-1.36-.56-1.41Z" transform="translate(-13.81 -21.25)"/><path class="cls-1" d="M207.78,30.89l.56,3h-.28v.85q.38,0,.85,6.25h-.15a1.66,1.66,0,0,1,.29.85c0,.08-.05.12-.14.12l.14.73v.56c0,.65-.14,1-.43,1l.14.3v.41h-.42c-.15,0-.53-.75-1.12-2.25-.18,0-.42-1.28-.73-3.83a1,1,0,0,1,.15-.43l-.15-.71a1.12,1.12,0,0,1,.15-.44l-.15-.84.44-1.4-.15-.3C207.25,32.17,207.58,30.89,207.78,30.89Zm14.3-6.95c3,.54,4.54,1.15,4.54,1.85a2.78,2.78,0,0,1,1.27,2.42l-.15,1.7.3,1.83a11.82,11.82,0,0,0-.15,1.85v.84a1.13,1.13,0,0,1-.15.59c0,.09,0,.14.15.14l-.15,1.69v.41a7.41,7.41,0,0,0,.3,2h-.3a4,4,0,0,0,.15,1c-.1,1.06-.15,2-.15,2.83v.72a1.09,1.09,0,0,0,.15.56,4.72,4.72,0,0,0-.28,1.85v.42l.13.7c-.28,0-.61.47-1,1.42a1.32,1.32,0,0,0-.85.43,6.91,6.91,0,0,1-2.27-2.83,11.53,11.53,0,0,0-2.54-2v-.15c0-.27.94-.45,2.83-.54a5.11,5.11,0,0,0,.69-3.14v-.69a1.06,1.06,0,0,1,.16-.58,10.82,10.82,0,0,1-.29-3.25v-.29l.13-.7-.27-.15c.09-1.28.14-2.22.14-2.83v-.85c0-2.3-.43-3.9-1.27-4.81a4,4,0,0,0-1.28-.86l-.3.15c-.66-.1-1-.15-1.1-.15l-1.44.86a27,27,0,0,0-4.24.85,36.31,36.31,0,0,0-4,.42,1.17,1.17,0,0,0-.29-.72v-.14c2.06-.37,5.22-1.13,9.49-2.26a8.14,8.14,0,0,1,1.42-.28h.56Zm-10.62,8h1V32a.26.26,0,0,1-.3.29h-.41c-.19,0-.28-.1-.28-.29Zm7.08-3.54h.71c0,.33.43.71,1.29,1.13l.12.29v.71c0,.2-1,.58-3.1,1.12v.14h-2.7c-.19,0-.29.13-.29.3l-1-.15h-1V31.6c2.24-1.22,3.61-1.83,4.12-1.83a1.33,1.33,0,0,0,.69-.42h.16l.27.13C218.15,28.73,218.39,28.35,218.54,28.35Zm.29,4.83h.71v.27l1-.14a1.75,1.75,0,0,1,1.69,1.41A22.75,22.75,0,0,0,221,39c-.68.93-2.23,1.39-4.67,1.39a8.31,8.31,0,0,1-.86-.13,2.24,2.24,0,0,1-.85.28c-.94-.33-1.42-.61-1.42-.84v-.58l.15-.85a7.71,7.71,0,0,1-.71-2.83V35h.15a1.56,1.56,0,0,0,1,.41,3.53,3.53,0,0,1,1.4-.41c1.05-.47,1.58-.8,1.58-1s.23-.36.69-.71a9.9,9.9,0,0,0,1,.28C218.4,33.45,218.54,33.32,218.83,33.18Zm-2.27,2.69-.7-.15h-.29V36h-1.28a15.14,15.14,0,0,1,.71,2.68h.28c1.65,0,2.59-.71,2.84-2.12v-.15a1.21,1.21,0,0,0-.72-1.14C216.84,35.6,216.56,35.8,216.56,35.87Z" transform="translate(-13.81 -21.25)"/></svg>